<mxfile host="app.diagrams.net" modified="2020-10-17T11:33:33.939Z" agent="5.0 (Windows NT 10.0; WOW64) AppleWebKit/537.36 (KHTML, like Gecko) coc_coc_browser/90.0.148 Chrome/84.0.4147.148 Safari/537.36" etag="MifxLKssSWrdbQjjd9rQ" version="13.8.0" type="github">
  <diagram id="OzYs04S8uUPBTb7_q9K2" name="Page-1">
    <mxGraphModel dx="1378" dy="770" grid="0" gridSize="10" guides="1" tooltips="1" connect="1" arrows="1" fold="1" page="1" pageScale="1" pageWidth="827" pageHeight="700" math="0" shadow="0">
      <root>
        <mxCell id="0" />
        <mxCell id="1" parent="0" />
        <mxCell id="MOmWcvqIyaZAT1qRm1WX-9" style="edgeStyle=orthogonalEdgeStyle;rounded=0;orthogonalLoop=1;jettySize=auto;html=1;entryX=0.5;entryY=0;entryDx=0;entryDy=0;" edge="1" parent="1" target="MOmWcvqIyaZAT1qRm1WX-2">
          <mxGeometry relative="1" as="geometry">
            <mxPoint x="409" y="73" as="sourcePoint" />
          </mxGeometry>
        </mxCell>
        <mxCell id="MOmWcvqIyaZAT1qRm1WX-10" style="edgeStyle=orthogonalEdgeStyle;rounded=0;orthogonalLoop=1;jettySize=auto;html=1;exitX=0.5;exitY=1;exitDx=0;exitDy=0;entryX=0.5;entryY=0;entryDx=0;entryDy=0;" edge="1" parent="1" source="MOmWcvqIyaZAT1qRm1WX-2" target="MOmWcvqIyaZAT1qRm1WX-5">
          <mxGeometry relative="1" as="geometry" />
        </mxCell>
        <mxCell id="MOmWcvqIyaZAT1qRm1WX-29" style="edgeStyle=orthogonalEdgeStyle;rounded=0;orthogonalLoop=1;jettySize=auto;html=1;exitX=1;exitY=0.5;exitDx=0;exitDy=0;entryX=0.5;entryY=0;entryDx=0;entryDy=0;" edge="1" parent="1" source="MOmWcvqIyaZAT1qRm1WX-2" target="MOmWcvqIyaZAT1qRm1WX-27">
          <mxGeometry relative="1" as="geometry" />
        </mxCell>
        <mxCell id="MOmWcvqIyaZAT1qRm1WX-2" value="vi_tri_cuoi &amp;gt;= vi_tri_dau" style="rhombus;whiteSpace=wrap;html=1;" vertex="1" parent="1">
          <mxGeometry x="305.25" y="97" width="206.5" height="67" as="geometry" />
        </mxCell>
        <mxCell id="MOmWcvqIyaZAT1qRm1WX-16" style="edgeStyle=orthogonalEdgeStyle;rounded=0;orthogonalLoop=1;jettySize=auto;html=1;exitX=0;exitY=0.5;exitDx=0;exitDy=0;entryX=1;entryY=0.5;entryDx=0;entryDy=0;" edge="1" parent="1" source="MOmWcvqIyaZAT1qRm1WX-3" target="MOmWcvqIyaZAT1qRm1WX-6">
          <mxGeometry relative="1" as="geometry" />
        </mxCell>
        <mxCell id="MOmWcvqIyaZAT1qRm1WX-22" style="edgeStyle=orthogonalEdgeStyle;rounded=0;orthogonalLoop=1;jettySize=auto;html=1;exitX=0.5;exitY=1;exitDx=0;exitDy=0;entryX=0.5;entryY=0;entryDx=0;entryDy=0;" edge="1" parent="1" source="MOmWcvqIyaZAT1qRm1WX-3" target="MOmWcvqIyaZAT1qRm1WX-7">
          <mxGeometry relative="1" as="geometry" />
        </mxCell>
        <mxCell id="MOmWcvqIyaZAT1qRm1WX-3" value="x &amp;gt; v[vi_tri_giua]" style="rhombus;whiteSpace=wrap;html=1;" vertex="1" parent="1">
          <mxGeometry x="327.25" y="293" width="162.5" height="54" as="geometry" />
        </mxCell>
        <mxCell id="MOmWcvqIyaZAT1qRm1WX-11" style="edgeStyle=orthogonalEdgeStyle;rounded=0;orthogonalLoop=1;jettySize=auto;html=1;exitX=0.5;exitY=1;exitDx=0;exitDy=0;entryX=0.5;entryY=0;entryDx=0;entryDy=0;" edge="1" parent="1" source="MOmWcvqIyaZAT1qRm1WX-5" target="MOmWcvqIyaZAT1qRm1WX-3">
          <mxGeometry relative="1" as="geometry" />
        </mxCell>
        <mxCell id="MOmWcvqIyaZAT1qRm1WX-5" value="vi_tri_giua = round((vi_tri_cuoi + vi_tri_dau)/2)" style="rounded=0;whiteSpace=wrap;html=1;" vertex="1" parent="1">
          <mxGeometry x="280" y="198" width="257" height="41" as="geometry" />
        </mxCell>
        <mxCell id="MOmWcvqIyaZAT1qRm1WX-17" style="edgeStyle=orthogonalEdgeStyle;rounded=0;orthogonalLoop=1;jettySize=auto;html=1;exitX=0.5;exitY=0;exitDx=0;exitDy=0;entryX=0.5;entryY=0;entryDx=0;entryDy=0;" edge="1" parent="1" source="MOmWcvqIyaZAT1qRm1WX-6" target="MOmWcvqIyaZAT1qRm1WX-2">
          <mxGeometry relative="1" as="geometry">
            <mxPoint x="219" y="66" as="targetPoint" />
          </mxGeometry>
        </mxCell>
        <mxCell id="MOmWcvqIyaZAT1qRm1WX-6" value="vi_tri_cuoi&amp;nbsp; = vi_tri_giua - 1" style="rounded=0;whiteSpace=wrap;html=1;" vertex="1" parent="1">
          <mxGeometry x="108" y="300" width="154.5" height="40" as="geometry" />
        </mxCell>
        <mxCell id="MOmWcvqIyaZAT1qRm1WX-20" style="edgeStyle=orthogonalEdgeStyle;rounded=0;orthogonalLoop=1;jettySize=auto;html=1;exitX=0;exitY=0.5;exitDx=0;exitDy=0;entryX=1;entryY=0.5;entryDx=0;entryDy=0;" edge="1" parent="1" source="MOmWcvqIyaZAT1qRm1WX-7" target="MOmWcvqIyaZAT1qRm1WX-8">
          <mxGeometry relative="1" as="geometry" />
        </mxCell>
        <mxCell id="MOmWcvqIyaZAT1qRm1WX-30" style="edgeStyle=orthogonalEdgeStyle;rounded=0;orthogonalLoop=1;jettySize=auto;html=1;exitX=0.5;exitY=1;exitDx=0;exitDy=0;entryX=0.5;entryY=0;entryDx=0;entryDy=0;" edge="1" parent="1" source="MOmWcvqIyaZAT1qRm1WX-7" target="MOmWcvqIyaZAT1qRm1WX-26">
          <mxGeometry relative="1" as="geometry" />
        </mxCell>
        <mxCell id="MOmWcvqIyaZAT1qRm1WX-7" value="x &amp;lt; v[vi_tri_giua]" style="rhombus;whiteSpace=wrap;html=1;" vertex="1" parent="1">
          <mxGeometry x="327.25" y="391" width="162.5" height="54" as="geometry" />
        </mxCell>
        <mxCell id="MOmWcvqIyaZAT1qRm1WX-21" style="edgeStyle=orthogonalEdgeStyle;rounded=0;orthogonalLoop=1;jettySize=auto;html=1;exitX=0;exitY=0.5;exitDx=0;exitDy=0;entryX=0.5;entryY=0;entryDx=0;entryDy=0;" edge="1" parent="1" source="MOmWcvqIyaZAT1qRm1WX-8" target="MOmWcvqIyaZAT1qRm1WX-2">
          <mxGeometry relative="1" as="geometry">
            <Array as="points">
              <mxPoint x="82" y="418" />
              <mxPoint x="82" y="77" />
              <mxPoint x="409" y="77" />
            </Array>
          </mxGeometry>
        </mxCell>
        <mxCell id="MOmWcvqIyaZAT1qRm1WX-8" value="vi_tri_dau&amp;nbsp; = vi_tri_giua + 1" style="rounded=0;whiteSpace=wrap;html=1;" vertex="1" parent="1">
          <mxGeometry x="108" y="398" width="154.5" height="40" as="geometry" />
        </mxCell>
        <mxCell id="MOmWcvqIyaZAT1qRm1WX-31" style="edgeStyle=orthogonalEdgeStyle;rounded=0;orthogonalLoop=1;jettySize=auto;html=1;exitX=0.5;exitY=1;exitDx=0;exitDy=0;" edge="1" parent="1" source="MOmWcvqIyaZAT1qRm1WX-26" target="MOmWcvqIyaZAT1qRm1WX-28">
          <mxGeometry relative="1" as="geometry" />
        </mxCell>
        <mxCell id="MOmWcvqIyaZAT1qRm1WX-26" value="ket_qua = vi_tri_giua" style="rounded=0;whiteSpace=wrap;html=1;" vertex="1" parent="1">
          <mxGeometry x="341" y="483" width="135" height="44" as="geometry" />
        </mxCell>
        <mxCell id="MOmWcvqIyaZAT1qRm1WX-32" style="edgeStyle=orthogonalEdgeStyle;rounded=0;orthogonalLoop=1;jettySize=auto;html=1;exitX=0.5;exitY=1;exitDx=0;exitDy=0;" edge="1" parent="1" source="MOmWcvqIyaZAT1qRm1WX-27" target="MOmWcvqIyaZAT1qRm1WX-28">
          <mxGeometry relative="1" as="geometry" />
        </mxCell>
        <mxCell id="MOmWcvqIyaZAT1qRm1WX-27" value="ket_qua = -1" style="rounded=0;whiteSpace=wrap;html=1;" vertex="1" parent="1">
          <mxGeometry x="537" y="483" width="135" height="44" as="geometry" />
        </mxCell>
        <mxCell id="MOmWcvqIyaZAT1qRm1WX-28" value="ket_qua" style="shape=parallelogram;perimeter=parallelogramPerimeter;whiteSpace=wrap;html=1;fixedSize=1;" vertex="1" parent="1">
          <mxGeometry x="349" y="590" width="120" height="39" as="geometry" />
        </mxCell>
        <mxCell id="MOmWcvqIyaZAT1qRm1WX-35" style="edgeStyle=orthogonalEdgeStyle;rounded=0;orthogonalLoop=1;jettySize=auto;html=1;exitX=0.5;exitY=1;exitDx=0;exitDy=0;entryX=0.5;entryY=0;entryDx=0;entryDy=0;" edge="1" parent="1" source="MOmWcvqIyaZAT1qRm1WX-33" target="MOmWcvqIyaZAT1qRm1WX-2">
          <mxGeometry relative="1" as="geometry" />
        </mxCell>
        <mxCell id="MOmWcvqIyaZAT1qRm1WX-33" value="&lt;span&gt;x, v, vi_tri_dau, vi_tri_cuoi&lt;/span&gt;" style="shape=parallelogram;perimeter=parallelogramPerimeter;whiteSpace=wrap;html=1;fixedSize=1;" vertex="1" parent="1">
          <mxGeometry x="312" y="22" width="194" height="38" as="geometry" />
        </mxCell>
        <mxCell id="MOmWcvqIyaZAT1qRm1WX-36" value="True" style="text;html=1;strokeColor=none;fillColor=none;align=center;verticalAlign=middle;whiteSpace=wrap;rounded=0;" vertex="1" parent="1">
          <mxGeometry x="410" y="171" width="40" height="20" as="geometry" />
        </mxCell>
        <mxCell id="MOmWcvqIyaZAT1qRm1WX-37" value="True" style="text;html=1;strokeColor=none;fillColor=none;align=center;verticalAlign=middle;whiteSpace=wrap;rounded=0;" vertex="1" parent="1">
          <mxGeometry x="280" y="300" width="40" height="20" as="geometry" />
        </mxCell>
        <mxCell id="MOmWcvqIyaZAT1qRm1WX-39" value="True" style="text;html=1;strokeColor=none;fillColor=none;align=center;verticalAlign=middle;whiteSpace=wrap;rounded=0;" vertex="1" parent="1">
          <mxGeometry x="280" y="398" width="40" height="20" as="geometry" />
        </mxCell>
        <mxCell id="MOmWcvqIyaZAT1qRm1WX-40" value="False" style="text;html=1;strokeColor=none;fillColor=none;align=center;verticalAlign=middle;whiteSpace=wrap;rounded=0;" vertex="1" parent="1">
          <mxGeometry x="533" y="109" width="40" height="20" as="geometry" />
        </mxCell>
        <mxCell id="MOmWcvqIyaZAT1qRm1WX-41" value="False" style="text;html=1;strokeColor=none;fillColor=none;align=center;verticalAlign=middle;whiteSpace=wrap;rounded=0;" vertex="1" parent="1">
          <mxGeometry x="410" y="256" width="40" height="20" as="geometry" />
        </mxCell>
        <mxCell id="MOmWcvqIyaZAT1qRm1WX-42" value="False" style="text;html=1;strokeColor=none;fillColor=none;align=center;verticalAlign=middle;whiteSpace=wrap;rounded=0;" vertex="1" parent="1">
          <mxGeometry x="410" y="359" width="40" height="20" as="geometry" />
        </mxCell>
        <mxCell id="MOmWcvqIyaZAT1qRm1WX-43" value="False" style="text;html=1;strokeColor=none;fillColor=none;align=center;verticalAlign=middle;whiteSpace=wrap;rounded=0;" vertex="1" parent="1">
          <mxGeometry x="410" y="454" width="40" height="20" as="geometry" />
        </mxCell>
      </root>
    </mxGraphModel>
  </diagram>
</mxfile>
